<svg width="55" height="42" fill="none" xmlns="http://www.w3.org/2000/svg"><rect x="8" y="1" width="46" height="32" rx="5" fill="#fff" stroke="#E7E7E7" stroke-width="2"/><rect x="1" y="9" width="46" height="32" rx="5" fill="#fff" stroke="#E7E7E7" stroke-width="2"/><path d="M38.233 18.345c-.35 0-.665.16-.879.41l-.011.011-12.657 12.789-12.668-12.811a1.133 1.133 0 00-.868-.41A1.16 1.16 0 0010 19.495v10.887a1.16 1.16 0 001.15 1.162c.63 0 1.15-.513 1.15-1.162v-8.097l11.518 11.65c.214.25.518.398.868.398s.665-.159.868-.398l11.53-11.639v8.097a1.16 1.16 0 001.15 1.162c.63 0 1.149-.513 1.149-1.162V19.506c-.012-.649-.519-1.161-1.15-1.161z" fill="#E7E7E7"/></svg>